<svg width="35" height="36" viewBox="0 0 35 36" fill="none" xmlns="http://www.w3.org/2000/svg">
<g id="Add, Plus">
<path id="Union" d="M26.2501 19.4582H18.9584V26.7498C18.9584 27.5519 18.3022 28.2082 17.5001 28.2082C16.698 28.2082 16.0417 27.5519 16.0417 26.7498V19.4582H8.75008C7.948 19.4582 7.29175 18.8019 7.29175 17.9998C7.29175 17.1978 7.948 16.5415 8.75008 16.5415H16.0417V9.24984C16.0417 8.44775 16.698 7.7915 17.5001 7.7915C18.3022 7.7915 18.9584 8.44775 18.9584 9.24984V16.5415H26.2501C27.0522 16.5415 27.7084 17.1978 27.7084 17.9998C27.7084 18.8019 27.0522 19.4582 26.2501 19.4582Z" fill="white"/>
</g>
</svg>
